<svg id="a" data-name="Layer 4" xmlns="http://www.w3.org/2000/svg" viewBox="0 0 932.28 286.82"><defs><clipPath id="b"><path class="g" d="m455.08 7.3-.24.58-40.53 100.33L373.53 7.3z"/></clipPath><clipPath id="d"><path class="g" d="M424.26 279.54v-.03h-36.29L277.97 7.3h44.61v.01h36.49l48.12 119.14 61.83 153.09z"/></clipPath><clipPath id="e"><path class="g" d="M260.88 7.3h-57.19l-110 272.23h277.16zm-28.62 96.51 45.71 113.09h-91.38z"/></clipPath><linearGradient id="c" x1="72.4" y1="38.73" x2="499.32" y2="211.23" gradientTransform="matrix(1 0 0 -1 0 288.79)" gradientUnits="userSpaceOnUse"><stop offset="0" stop-color="#720000"/><stop offset="1" stop-color="#ff8500"/></linearGradient><style>.f{fill:url(#c)}.g{fill:none}</style></defs><path d="m905.24 76.5-7.72-19.1-20.08-49.7-.17-.4H467.9l-46.87 115.96 27.04 66.89 35.94 88.95.18.4h26.91v.03h253.76v-.03h112.41l.17-.4 20.08-49.7 7.72-19.1 27.04-66.89zM553.56 216.87h-27.14l-37.82-93.61 21.55-53.33 102.78.02zm81.1 0 45.67-113.06 45.68 113.06zm200.38 0h-27.92L747.77 69.95l87.27-.02 29.67 73.48z"/><path class="f" style="clip-path:url(#b)" d="m80.69 286.81 395.43.01-65.14-161.29L461.43 0H196.58l-57.01 140.32z"/><path class="f" style="clip-path:url(#d)" d="m80.69 286.81 395.43.01-65.14-161.29L461.43 0H196.58l-57.01 140.32z"/><path class="f" style="clip-path:url(#e)" d="m80.69 286.81 395.43.01-65.14-161.29L461.43 0H196.58l-57.01 140.32z"/><path d="m132.9 143-28.3 70.02-26.83 66.49H44.6v.03H0L55.47 142.3 3.58 7.31h43.54v-.02h33.61z"/></svg>